<?xml version="1.0" encoding="UTF-8"?>
<!DOCTYPE svg PUBLIC "-//W3C//DTD SVG 1.1//EN" "http://www.w3.org/Graphics/SVG/1.1/DTD/svg11.dtd">
<!-- Creator: CorelDRAW X7 -->
<svg xmlns="http://www.w3.org/2000/svg" xml:space="preserve" width="210mm" height="297mm" version="1.1" style="shape-rendering:geometricPrecision; text-rendering:geometricPrecision; image-rendering:optimizeQuality; fill-rule:evenodd; clip-rule:evenodd"
viewBox="0 0 21000 29700"
 xmlns:xlink="http://www.w3.org/1999/xlink">
 <defs>
  <style type="text/css">
   <![CDATA[
    .fil1 {fill:#FEFEFE}
    .fil0 {fill:white}
   ]]>
  </style>
 </defs>
 <g id="Layer_x0020_1">
  <metadata id="CorelCorpID_0Corel-Layer"/>
  <g id="_821629680">
   <path class="fil0" d="M3866 23140c225,0 351,-36 544,-120 196,-86 416,-226 574,-366 63,-56 359,-345 380,-426 -128,68 -212,136 -359,185 -159,52 -142,60 -296,-32 -32,-19 -58,-33 -88,-53 -113,-70 -215,-148 -317,-227l-292 -260c-67,-68 -102,-96 -163,-169l-225 -262c-179,-218 -458,-629 -458,-921 0,-230 48,-257 49,-325 -70,47 -136,103 -203,157l-244 216c-17,17 -29,29 -46,46 -31,31 -62,59 -92,92 -116,126 -228,257 -332,396l-193 309c-15,35 36,140 50,170 42,86 82,155 133,234 105,163 181,264 310,418 188,224 421,451 658,629 110,83 210,152 332,219 77,43 161,90 278,90z"/>
   <path class="fil0" d="M5930 19549c0,47 -235,397 -288,461 -118,142 -343,419 -480,525 -26,20 -40,41 -65,61 -27,22 -41,37 -69,59 -206,161 -332,280 -585,418 -206,113 -235,122 -448,154l-12 2c-52,8 -86,-1 -131,-5 -101,-8 -135,-33 -205,-49 6,27 38,64 55,86l300 350 263 254c72,55 148,129 244,200 57,43 111,79 171,119 199,134 182,126 354,53l142 -77c105,-58 365,-242 455,-323 20,-17 40,-35 62,-51 101,-80 250,-232 341,-323 70,-70 142,-162 208,-237 77,-87 218,-300 274,-398 56,-96 107,-187 107,-339 0,-273 -167,-651 -324,-863 -120,-161 -225,-302 -381,-433 -72,-59 -116,-106 -207,-167 2,31 16,41 29,62 67,105 190,343 190,461z"/>
   <path class="fil0" d="M2508 18687c27,-7 203,-136 397,-197 118,-38 123,-35 218,20 62,36 125,73 184,113 119,80 231,162 338,256 102,89 264,228 346,326 59,71 147,161 207,238 173,222 400,517 478,787 42,143 44,308 -4,458 -7,23 -14,34 -15,63 73,-49 136,-102 204,-157l382 -354 256 -295c88,-115 190,-258 257,-387 15,-29 20,-30 10,-64 -45,-163 -162,-334 -255,-474 -25,-39 -49,-69 -77,-106 -54,-72 -104,-137 -163,-205l-85 -98c-86,-87 -174,-193 -272,-280l-99 -85c-195,-164 -562,-471 -815,-471l-2 0c-293,0 -487,87 -719,212 -64,34 -122,74 -182,114 -196,130 -383,310 -529,497 -17,21 -53,65 -60,89z"/>
   <path class="fil1" d="M3505 19201c107,-42 144,117 62,148 -110,41 -158,-110 -62,-148zm-179 -157c109,-41 151,112 60,147 -100,39 -157,-111 -60,-147zm-167 -161c104,-35 140,125 48,151 -110,30 -151,-118 -48,-151zm-1909 1542c0,525 484,1177 912,1464 -2,-26 -49,-94 -64,-120 -54,-89 -155,-296 -155,-403 0,-47 208,-354 260,-426 189,-257 379,-437 611,-654l320 -253c112,-81 302,-207 432,-261 58,-24 101,-44 165,-61 125,-32 228,-35 357,-9 58,11 90,27 138,38 -8,-29 -97,-139 -122,-168l-166 -195c-13,-13 -22,-21 -35,-35 -49,-48 -117,-128 -180,-187 -18,-16 -26,-18 -43,-35l-109 -103c-17,-15 -25,-18 -43,-35 -25,-24 -54,-45 -81,-68 -81,-66 -167,-125 -254,-184 -23,-15 -171,-107 -190,-107 -25,0 -22,2 -42,9 -209,71 -320,156 -532,301 -130,89 -246,196 -364,300 -14,12 -18,12 -32,24 -11,10 -18,18 -28,29 -55,55 -233,231 -274,284 -16,21 -31,36 -49,58 -133,165 -217,270 -325,459 -56,96 -107,187 -107,338z"/>
   <path class="fil1" d="M16929 20221l297 0 10 -951c5,13 7,24 10,33l249 918 318 0c2,-24 9,-43 15,-63 6,-19 9,-38 16,-62l216 -794c4,-15 4,-17 10,-34l9 -25c1,-1 2,-4 2,-5l0 983 297 0 0 -1478c0,-16 -5,-21 -21,-21l-410 0c-33,0 -37,66 -51,119 -10,42 -22,91 -34,135 -17,70 -197,782 -198,820 -24,-17 -67,-235 -73,-265l-168 -680c-13,-51 -21,-129 -48,-129l-446 0 0 1499z"/>
   <path class="fil1" d="M8453 22249l297 0 0 -982c17,12 32,39 42,57l553 868c8,14 29,57 49,57l282 0 0 -1477c0,-16 -4,-21 -21,-21l-275 0 0 947c-22,-15 -63,-87 -79,-113 -24,-41 -49,-79 -75,-123l-296 -481c-14,-21 -22,-35 -35,-57 -15,-24 -26,-40 -38,-61 -88,-146 -17,-112 -404,-112l0 1498z"/>
   <path class="fil1" d="M9464 20221l290 0 0 -983c22,14 146,218 161,243 99,168 284,446 396,621l57 91c10,16 8,28 29,28l283 0 0 -1478c0,-16 -5,-21 -21,-21 -325,0 -276,-25 -276,99l0 855 -561 -909c-14,-23 -18,-45 -54,-45l-304 0 0 1499z"/>
   <path class="fil1" d="M13345 22249l290 0 0 -989 316 490c35,59 306,473 313,499l297 0 0 -1498 -297 0 0 947c-19,-14 -56,-88 -75,-116 -116,-177 -252,-414 -369,-599l-111 -179c-11,-18 -24,-53 -46,-53l-318 0 0 1498z"/>
   <path class="fil1" d="M12299 20984c281,0 403,219 403,466 0,165 4,310 -105,447 -190,239 -674,169 -694,-270 -4,-93 -10,-75 -1,-163 2,-19 0,-37 2,-56 15,-216 135,-424 395,-424zm-714 530c0,206 35,367 140,525 183,276 606,320 898,209 414,-156 452,-708 352,-1063 -28,-99 -69,-175 -129,-254 -265,-354 -1261,-405 -1261,583z"/>
   <path class="fil1" d="M12815 19386l-297 0 0 -395 424 0c225,0 232,303 92,367 -49,23 -145,28 -219,28zm-608 -643l0 1478 311 0 0 -580 339 0c65,0 139,15 172,47 36,36 48,109 48,179l0 354 311 0c0,-131 15,-491 -31,-592 -21,-48 -79,-110 -139,-115l0 -14c105,-25 205,-172 205,-304l0 -71c0,-123 -80,-246 -152,-300 -97,-72 -193,-103 -357,-103l-686 0c-16,0 -21,5 -21,21z"/>
   <path class="fil1" d="M15841 19386l-283 0c-16,0 -21,-4 -21,-21l0 -353c0,-16 5,-21 21,-21l410 0c53,0 100,20 129,47 84,78 73,269 -37,320 -50,23 -145,28 -219,28zm-608 -643l0 1478 304 0 0 -580 346 0c168,0 219,60 219,226l0 354 311 0c0,-144 19,-496 -35,-602 -23,-45 -79,-101 -134,-105l0 -14c111,-26 205,-183 205,-290 0,-117 7,-156 -52,-267 -28,-51 -60,-88 -105,-121 -93,-70 -192,-100 -352,-100l-686 0c-16,0 -21,5 -21,21z"/>
   <path class="fil1" d="M10617 21988l-297 0 0 -969c199,0 432,-31 549,108 126,150 109,569 8,725 -47,73 -142,136 -260,136zm-608 261l664 0c283,0 490,-215 570,-462 14,-42 24,-93 31,-139 40,-292 -17,-584 -262,-769 -104,-79 -263,-128 -410,-128l-593 0 0 1498z"/>
   <path class="fil1" d="M15932 21334c-176,0 -353,0 -530,0 -224,0 -196,18 -195,-60 0,-77 -7,-186 1,-259l788 0c16,-40 7,-114 7,-165 0,-128 72,-99 -417,-99 -228,0 -457,0 -686,0l0 1498 1139 0 0 -268 -828 0 0 -382 680 1c59,0 49,12 49,-142 0,-39 7,-94 -8,-124z"/>
   <path class="fil1" d="M7796 19082c0,144 0,248 122,352 269,227 762,117 762,384 0,237 -385,238 -528,131 -48,-37 -87,-98 -87,-181l-304 0c0,379 297,509 657,509 687,0 694,-691 360,-833 -235,-100 -504,-133 -603,-189 -88,-49 -89,-80 -89,-151 0,-69 51,-117 104,-137 108,-40 366,-45 430,118 46,115 -69,89 321,89 0,-81 -19,-150 -47,-207 -25,-53 -62,-111 -107,-147 -110,-88 -226,-133 -376,-141 -176,-8 -356,11 -493,136 -17,16 -46,52 -58,70 -30,45 -64,123 -64,197z"/>
   <path class="fil1" d="M16321 21111c0,108 -4,180 58,275 98,150 342,207 513,243 148,31 292,46 315,187 42,249 -364,281 -522,162 -42,-31 -75,-76 -85,-128 -13,-72 44,-53 -314,-53 0,165 71,298 165,372 48,37 111,72 177,92 66,19 157,39 238,38 76,-1 157,7 243,-12 205,-44 407,-190 407,-405 0,-305 -85,-379 -379,-477 -183,-61 -526,-84 -526,-251 0,-142 120,-184 262,-184 173,0 283,66 297,226l255 1c52,0 46,5 43,-36 -8,-96 -51,-202 -99,-256 -42,-48 -12,-24 -63,-65 -125,-100 -258,-139 -440,-139 -147,0 -286,40 -372,102 -97,70 -173,178 -173,308z"/>
   <path class="fil1" d="M19135 21111l55 142c16,46 31,94 45,140 15,49 83,249 84,284l-361 0 177 -566zm-700 1138l332 0 106 -311 545 0c2,30 80,262 91,311l340 0c-1,-29 -47,-151 -59,-188l-457 -1310 -368 0 -66 181c-83,242 -189,513 -267,751l-197 566z"/>
   <path class="fil1" d="M19135 19082l14 0c1,59 168,515 170,573l-361 0 133 -425c13,-36 41,-110 44,-148zm-700 1139l332 0c5,-23 17,-48 26,-74l80 -230 545 0c11,50 28,101 45,152 9,29 14,46 23,76 8,29 17,48 23,76l340 0c-4,-46 -49,-149 -63,-192l-362 -1038c-11,-31 -24,-63 -34,-93 -10,-30 -48,-176 -79,-176l-332 0c-23,0 -28,34 -45,82 -64,184 -167,492 -233,658l-200 563c-13,41 -64,165 -66,196z"/>
   <path class="fil1" d="M11444 19075l133 432c12,40 40,108 43,148l-360 0c1,-31 10,-46 19,-73 9,-28 14,-53 22,-76 17,-49 33,-93 48,-144l95 -287zm-714 1146l339 0c19,-80 95,-260 99,-304l551 0c2,21 15,59 21,78 8,28 15,45 23,76l48 150 340 0c-3,-29 -177,-506 -196,-561 -95,-279 -204,-568 -295,-843 -11,-36 -25,-62 -33,-95l-360 0 -137 372c-21,65 -47,126 -67,187l-233 658c-24,64 -76,231 -100,282z"/>
   <path class="fil1" d="M14681 19422l-318 0 0 -431 318 0c68,0 120,20 160,52 106,85 102,379 -160,379zm-636 -679l0 1478 318 0 0 -538c177,0 414,21 554,-40 31,-14 50,-25 77,-43 49,-33 92,-73 123,-125 15,-25 31,-56 41,-86 48,-140 35,-277 -22,-408 -20,-45 -72,-110 -107,-141 -91,-80 -206,-118 -376,-118l-587 0c-16,0 -21,5 -21,21z"/>
   <path class="fil1" d="M16512 18743l0 1478 325 0 0 -1464c0,-19 -3,-19 -7,-35l-254 0c-32,-1 -64,-9 -64,21z"/>
   <polygon class="fil1" points="7796,22249 8114,22249 8114,20751 7796,20751 "/>
   <polygon class="fil1" points="17820,22249 18138,22249 18138,20751 17820,20751 "/>
   <path class="fil1" d="M9047 18743l0 1478 318 0 0 -1478c0,-16 -5,-21 -21,-21l-276 0c-16,0 -21,5 -21,21z"/>
   <path class="fil0" d="M3505 19201c-96,38 -48,189 62,148 82,-31 45,-190 -62,-148z"/>
   <path class="fil0" d="M3159 18883c-103,33 -62,181 48,151 92,-26 56,-186 -48,-151z"/>
   <path class="fil0" d="M3326 19044c-97,36 -40,186 60,147 91,-35 49,-188 -60,-147z"/>
   <path class="fil0" d="M15932 21334c-56,-20 -597,4 -718,-5l-3 -310c104,0 745,11 785,-4l-788 0c-8,73 -1,182 -1,259 -1,78 -29,60 195,60 177,0 354,0 530,0z"/>
  </g>
 </g>
</svg>
