<?xml version="1.0" encoding="UTF-8"?>
<!DOCTYPE svg PUBLIC "-//W3C//DTD SVG 1.1//EN" "http://www.w3.org/Graphics/SVG/1.1/DTD/svg11.dtd">
<!-- Creator: CorelDRAW X7 -->
<svg xmlns="http://www.w3.org/2000/svg" xml:space="preserve" width="210mm" height="297mm" version="1.1" style="shape-rendering:geometricPrecision; text-rendering:geometricPrecision; image-rendering:optimizeQuality; fill-rule:evenodd; clip-rule:evenodd"
viewBox="0 0 21000 29700"
 xmlns:xlink="http://www.w3.org/1999/xlink">
 <defs>
  <style type="text/css">
   <![CDATA[
    .fil4 {fill:#FEFEFE}
    .fil2 {fill:#0097D8}
    .fil1 {fill:#068A58}
    .fil0 {fill:#B03A02}
    .fil5 {fill:#D19747}
    .fil6 {fill:#E7E9E7}
    .fil3 {fill:#F6B04F}
   ]]>
  </style>
   <clipPath id="id0">
    <rect x="-24571" y="7173" width="18310" height="5289"/>
   </clipPath>
 </defs>
 <g id="Layer_x0020_1">
  <metadata id="CorelCorpID_0Corel-Layer"/>
  <g style="clip-path:url(#id0)">
   <image id="SPI.png" x="-24571" y="7173" width="18310" height="5289" xlink:href="SPI_Images\SPI_ImgID1.png"/>
  </g>
  <path class="fil0" d="M3820 14932c96,-39 139,111 57,143 -99,38 -160,-102 -57,-143zm-2223 1205l0 -2c1,-149 50,-238 105,-332 107,-186 189,-289 321,-452 17,-21 32,-36 47,-57 41,-52 216,-226 270,-280 11,-10 17,-18 28,-27 14,-13 17,-13 31,-25 116,-102 231,-208 359,-295 209,-142 318,-227 524,-297 19,-6 16,-8 41,-8 19,0 164,90 187,106 85,57 170,116 250,181 27,22 55,42 80,66 17,17 25,20 42,35l107 101c18,16 25,19 42,34 63,58 129,137 178,185 13,13 22,21 35,35l163 191c24,29 112,137 120,165 -48,-11 -79,-26 -136,-37 -127,-26 -228,-22 -351,9 -63,17 -106,36 -163,60 -128,54 -315,177 -426,257l-314 249c-228,214 -416,391 -601,644 -52,70 -257,373 -257,419 0,105 100,309 153,397 15,25 61,92 63,118 -421,-282 -897,-924 -898,-1440zm2044 -1360c98,-44 150,104 58,143 -93,39 -149,-103 -58,-143zm-163 -158c97,-28 134,117 45,146 -102,33 -151,-116 -45,-146z"/>
  <path class="fil1" d="M2698 16916c-10,-108 142,-114 153,-21 14,113 -145,116 -153,21zm298 -160c-37,90 -183,43 -143,-59 33,-83 184,-42 143,59zm2 -188c-26,-106 132,-132 150,-40 21,111 -128,129 -150,40zm1174 2241c222,0 346,-35 536,-118 193,-85 410,-222 565,-361 63,-55 353,-339 375,-419 -127,67 -210,134 -354,182 -157,51 -140,60 -291,-31 -32,-19 -57,-33 -88,-52 -111,-70 -211,-146 -311,-224l-287 -256c-67,-67 -101,-95 -161,-167l-222 -258c-176,-214 -451,-618 -451,-906 0,-227 47,-253 49,-320 -70,47 -135,101 -200,155l-240 212c-17,17 -29,29 -45,45 -32,31 -62,59 -91,91 -115,124 -225,253 -327,390l-190 304c-15,35 35,138 49,167 42,85 81,153 131,231 103,160 178,260 305,411 185,221 415,445 648,620 108,81 207,149 327,215 75,43 159,89 273,89z"/>
  <path class="fil2" d="M5482 15816c-41,93 -179,43 -143,-58 32,-90 185,-37 143,58zm1 -195c-5,-46 27,-82 62,-88 44,-7 84,24 90,61 19,112 -141,121 -152,27zm196 -262c110,-39 144,110 62,142 -106,41 -152,-111 -62,-142zm-2843 -934c26,-7 200,-134 391,-195 115,-36 121,-33 214,21 61,35 123,72 181,111 118,78 227,160 333,252 100,88 260,224 340,321 59,70 146,159 204,234 170,218 394,509 471,775 41,140 43,303 -4,451 -7,22 -14,33 -14,62 71,-48 133,-101 200,-155l376 -348 252 -291c86,-113 187,-254 253,-380 15,-29 20,-30 10,-64 -44,-160 -159,-329 -251,-466 -25,-38 -49,-69 -76,-105 -53,-70 -103,-135 -160,-201l-84 -97c-84,-85 -172,-190 -268,-275l-97 -84c-192,-161 -554,-464 -803,-464 -289,0 -481,85 -709,209 -64,34 -120,73 -180,112 -192,128 -377,305 -520,489 -17,21 -53,64 -59,88z"/>
  <path class="fil3" d="M4290 16936c83,0 62,11 104,57l149 172c22,27 60,60 69,92 -14,-3 -11,-6 -11,7l11 -7c94,0 122,37 91,127 -10,-1 -8,-3 -7,7l-8 6 -9 5 9 -5c10,1 9,4 8,-6 11,1 8,4 7,-7 7,-6 12,-10 20,-16 7,28 25,29 41,56 -11,-2 -9,-4 -7,7 -11,-2 -9,-4 -7,7l-9 12 -5 16c-6,11 -6,-2 -5,21 1,35 -1,9 7,20l-2 -41 5 -16 9 -12c10,1 8,3 7,-7 11,1 9,4 7,-7 89,-24 149,1 116,107 26,4 16,1 32,22 11,15 12,14 19,31 -12,-3 -10,-5 -7,8 -12,-3 -8,-5 -6,10 12,0 9,2 6,-10 12,2 10,4 7,-8 24,-8 30,-21 69,-16 57,7 93,64 26,145 31,48 69,80 104,124 35,45 66,72 100,123l344 -185 212 -150c36,-28 65,-51 101,-80 80,-62 129,-113 194,-168l355 -362c16,-17 25,-31 41,-49l120 -152c187,-271 333,-434 274,-773 -56,-314 -227,-604 -417,-843 -83,-105 -166,-190 -265,-278 -34,-30 -60,-56 -97,-84 -34,-25 -69,-55 -103,-77 2,25 135,230 178,357 52,153 53,153 -31,291 -53,89 -152,244 -215,321l-186 225c-44,56 -241,250 -298,300l-73 66c-14,13 -21,22 -36,34l-145 119c-170,140 -461,335 -669,410l-164 38c-71,9 -45,-4 -60,16z"/>
  <path class="fil4" d="M17033 15935l292 0 11 -936c4,13 7,24 9,32l245 904 313 0c2,-23 9,-42 15,-62 5,-19 9,-38 16,-61l213 -782c3,-15 4,-16 9,-33l9 -25c1,-1 2,-3 3,-5l0 968 292 0 0 -1455c0,-16 -5,-21 -21,-21l-404 0c-32,0 -37,65 -50,117 -10,42 -22,90 -33,134 -17,69 -194,769 -195,807 -24,-17 -66,-231 -73,-261l-165 -670c-13,-50 -21,-127 -47,-127l-439 0 0 1476z"/>
  <path class="fil4" d="M8689 17932l292 0 0 -967c16,11 31,38 42,56l543 855c8,14 29,56 48,56l279 0 0 -1455c0,-16 -5,-20 -21,-20l-271 0 0 932c-22,-14 -62,-85 -77,-111 -25,-41 -49,-78 -74,-121l-292 -474c-14,-21 -22,-34 -35,-55 -14,-24 -25,-40 -37,-60 -87,-145 -17,-111 -397,-111l0 1475z"/>
  <path class="fil4" d="M9684 15935l285 0 0 -968c22,15 144,215 158,239 98,166 281,440 391,612l56 90c9,15 8,27 29,27l278 0 0 -1455c0,-16 -5,-21 -21,-21 -319,0 -271,-25 -271,98l0 842 -553 -895c-14,-23 -18,-45 -53,-45l-299 0 0 1476z"/>
  <path class="fil4" d="M13505 17932l285 0 0 -974 311 482c35,59 302,466 308,492l293 0 0 -1475 -293 0 0 932c-19,-14 -55,-87 -73,-114 -115,-174 -249,-407 -364,-590l-109 -176c-11,-17 -24,-52 -45,-52l-313 0 0 1475z"/>
  <path class="fil4" d="M12475 16686c276,0 396,216 396,460 0,162 5,304 -103,439 -187,236 -664,166 -683,-266 -4,-91 -10,-74 -1,-161 2,-18 0,-36 1,-54 16,-213 134,-418 390,-418zm-703 522c0,203 35,361 138,517 180,272 596,315 884,206 408,-154 445,-697 346,-1047 -27,-97 -68,-172 -126,-250 -262,-348 -1242,-399 -1242,574z"/>
  <path class="fil4" d="M12983 15113l-292 0 0 -389 417 0c222,0 228,298 91,362 -49,22 -143,27 -216,27zm-599 -633l0 1455 307 0 0 -571 334 0c63,0 136,15 168,47 36,35 47,107 47,176l0 348 307 0c0,-129 14,-483 -30,-583 -22,-47 -78,-108 -138,-113l0 -14c104,-24 202,-169 202,-299l0 -70c0,-121 -78,-242 -150,-295 -94,-71 -189,-102 -351,-102l-675 0c-16,0 -21,5 -21,21z"/>
  <path class="fil4" d="M15961 15113l-278 0c-16,0 -21,-4 -21,-20l0 -348c0,-16 5,-21 21,-21l404 0c52,0 98,20 127,47 83,76 72,265 -37,315 -48,22 -142,27 -216,27zm-598 -633l0 1455 299 0 0 -571 341 0c166,0 216,59 216,223l0 348 306 0c0,-142 19,-489 -34,-592 -24,-45 -78,-100 -133,-104l0 -14c110,-26 202,-180 202,-285 0,-116 7,-154 -51,-263 -27,-51 -59,-87 -103,-119 -92,-69 -189,-99 -347,-99l-675 0c-16,0 -21,5 -21,21z"/>
  <path class="fil4" d="M10818 17674l-292 0 0 -953c196,0 426,-31 541,106 124,148 108,561 8,714 -47,71 -140,133 -257,133zm-598 258l654 0c279,0 482,-212 561,-455 14,-42 24,-92 30,-137 40,-287 -16,-575 -258,-757 -102,-78 -258,-126 -402,-126l-585 0 0 1475z"/>
  <path class="fil4" d="M8042 14814c0,142 0,244 120,346 265,224 750,115 750,378 0,234 -380,235 -520,129 -48,-36 -86,-96 -86,-178l-299 0c0,373 293,501 647,501 676,0 683,-680 354,-820 -231,-99 -496,-130 -594,-186 -86,-48 -87,-79 -87,-149 0,-67 51,-115 102,-134 107,-40 361,-45 424,116 45,113 -68,88 316,88 0,-80 -19,-148 -46,-205 -25,-51 -62,-109 -106,-144 -108,-87 -222,-131 -370,-139 -173,-8 -351,11 -485,134 -17,16 -46,51 -58,69 -29,44 -62,121 -62,194z"/>
  <path class="fil4" d="M16052 17033l-712 -1c-11,-24 -7,-51 -7,-81 1,-59 -6,-198 5,-237l777 0c17,-35 6,-112 6,-160 1,-126 71,-97 -410,-97 -225,0 -450,0 -675,0l0 1475 1120 0 0 -265 -814 0 0 -375 669 0c67,1 46,0 48,-202 0,-24 2,-41 -7,-57z"/>
  <path class="fil4" d="M16435 16811c0,107 -4,177 56,271 97,148 337,203 506,239 145,31 287,45 310,184 41,246 -359,277 -515,160 -40,-31 -73,-75 -83,-126 -13,-71 44,-52 -309,-52 0,162 70,293 163,365 47,37 109,72 174,91 64,19 154,38 234,38 75,-1 155,7 239,-11 202,-44 401,-187 401,-400 0,-300 -84,-373 -373,-469 -181,-60 -518,-83 -518,-248 0,-139 118,-181 257,-181 171,0 280,65 293,223l251 1c51,0 46,5 43,-36 -8,-94 -51,-199 -98,-252 -41,-47 -12,-23 -62,-63 -123,-99 -254,-137 -433,-137 -145,0 -282,39 -366,100 -96,69 -170,176 -170,303z"/>
  <path class="fil4" d="M19205 16811l54 141c16,45 30,92 44,137 15,48 82,245 82,279l-354 0 174 -557zm702 1121l0 0 -334 0c-11,-48 -88,-277 -90,-306l-536 0 -104 306 -327 0 193 -558c77,-234 182,-500 263,-739l65 -178 362 0 450 1290c13,36 58,155 58,185z"/>
  <path class="fil4" d="M19205 14814l13 0c2,58 166,507 167,564l-354 0 131 -418c12,-36 39,-109 43,-146zm702 1121l0 0 -334 0c-6,-28 -15,-46 -23,-74 -9,-30 -14,-47 -23,-75 -16,-50 -33,-101 -44,-151l-536 0 -79 227c-9,26 -20,51 -25,73l-327 0c2,-30 52,-152 65,-193l197 -554c65,-164 166,-467 229,-648 16,-47 21,-81 44,-81l327 0c31,0 68,145 78,174 10,30 23,61 33,92l357 1021c14,43 58,144 61,189z"/>
  <path class="fil4" d="M11633 14807l131 426c12,38 39,105 43,145l-355 0c0,-31 9,-46 18,-72 9,-27 15,-52 23,-75 16,-48 32,-91 46,-141l94 -283zm-703 1128l334 0c18,-79 94,-256 97,-300l543 0c2,22 14,59 20,78 9,27 15,44 23,74l48 148 334 0c-3,-29 -174,-498 -193,-553 -93,-274 -200,-558 -290,-830 -12,-34 -25,-60 -32,-93l-355 0 -135 367c-21,64 -46,124 -66,184l-230 647c-23,63 -74,228 -98,278z"/>
  <path class="fil4" d="M14820 15148l-313 0 0 -424 313 0c67,0 118,20 157,51 105,84 100,373 -157,373zm-626 -668l0 1455 313 0 0 -529c174,0 407,20 545,-40 31,-13 50,-25 76,-42 48,-33 90,-72 121,-123 15,-25 30,-56 40,-85 48,-138 35,-273 -21,-401 -20,-45 -71,-109 -105,-139 -90,-80 -204,-117 -371,-117l-577 0c-16,0 -21,5 -21,21z"/>
  <path class="fil4" d="M16623 14480l0 1455 320 0 0 -1441c0,-19 -4,-19 -7,-35l-251 0c-31,0 -62,-8 -62,21z"/>
  <polygon class="fil4" points="8042,17932 8355,17932 8355,16457 8042,16457 "/>
  <polygon class="fil4" points="17910,17932 18223,17932 18223,16457 17910,16457 "/>
  <path class="fil4" d="M9273 14480l0 1455 314 0 0 -1455c0,-16 -5,-21 -21,-21l-272 0c-16,0 -21,5 -21,21z"/>
  <path class="fil5" d="M5230 17960c-34,-51 -65,-78 -100,-123 -35,-44 -73,-76 -104,-124 -93,29 -132,-32 -108,-111 -2,-15 -6,-13 6,-10 -3,-13 -5,-11 7,-8 -7,-17 -8,-16 -19,-31 -16,-21 -6,-18 -32,-22 -22,16 -34,40 -81,33 -38,-5 -52,-26 -61,-57 -8,-11 -6,15 -7,-20 -1,-23 -1,-10 5,-21l5 -16 9 -12c-2,-11 -4,-9 7,-7 -2,-11 -4,-9 7,-7 -16,-27 -34,-28 -41,-56 -8,6 -13,10 -20,16 1,11 4,8 -7,7 1,10 2,7 -8,6l-9 5c-114,31 -154,-77 -78,-138 0,-13 -3,-10 11,-7 -9,-32 -47,-65 -69,-92l-149 -172c-42,-46 -21,-57 -104,-57 -31,-11 -59,-4 -94,-9 -31,-5 -59,-6 -87,-11 -60,-10 -100,-30 -153,-42 9,38 156,210 190,249 15,17 18,25 35,42l292 306c19,15 24,17 42,35 13,13 21,22 35,35l119 103c59,46 108,86 168,131 31,23 57,40 87,59 31,21 58,41 92,61 170,101 109,81 214,65z"/>
  <path class="fil6" d="M5679 15359c-90,31 -44,183 62,142 82,-32 48,-181 -62,-142z"/>
  <path class="fil6" d="M2698 16916c8,95 167,92 153,-21 -11,-93 -163,-87 -153,21z"/>
  <path class="fil6" d="M3478 14619c-106,30 -57,179 45,146 89,-29 52,-174 -45,-146z"/>
  <path class="fil6" d="M3820 14932c-103,41 -42,181 57,143 82,-32 39,-182 -57,-143z"/>
  <path class="fil6" d="M5482 15816c42,-95 -111,-148 -143,-58 -36,101 102,151 143,58z"/>
  <path class="fil6" d="M3641 14777c-91,40 -35,182 58,143 92,-39 40,-187 -58,-143z"/>
  <path class="fil6" d="M2998 16568c22,89 171,71 150,-40 -18,-92 -176,-66 -150,40z"/>
  <path class="fil6" d="M4764 17424c2,11 4,8 -7,7 1,10 3,8 -7,7l-9 12 -5 16 2 41c9,31 23,52 61,57 47,7 59,-17 81,-33 33,-106 -27,-131 -116,-107z"/>
  <path class="fil6" d="M5483 15621c11,94 171,85 152,-27 -6,-37 -46,-68 -90,-61 -35,6 -67,42 -62,88z"/>
  <path class="fil6" d="M2996 16756c41,-101 -110,-142 -143,-59 -40,102 106,149 143,59z"/>
  <path class="fil6" d="M4931 17584c3,12 5,10 -7,8 3,12 6,10 -6,10 -24,79 15,140 108,111 67,-81 31,-138 -26,-145 -39,-5 -45,8 -69,16z"/>
  <path class="fil6" d="M4601 17264c-76,61 -36,169 78,138l9 -5 8 -6c-1,-10 -3,-8 7,-7 31,-90 3,-127 -91,-127l-11 7z"/>
  <path class="fil4" d="M16052 17033c-6,-3 -2,-4 -15,-5l-62 -1c-124,0 -584,-7 -635,5l2 -311 752 0c22,-2 10,0 21,-7l-777 0c-11,39 -4,178 -5,237 0,30 -4,57 7,81l712 1z"/>
 </g>
</svg>
